<svg width="151" height="148" viewBox="0 0 151 148" fill="none" xmlns="http://www.w3.org/2000/svg">
<g clip-path="url(#clip0_455_44)">
<path fill-rule="evenodd" clip-rule="evenodd" d="M75.4377 0.80957C34.0882 0.80957 0.661133 34.483 0.661133 76.1417C0.661133 109.442 22.079 137.629 51.7912 147.606C55.506 148.356 56.8667 145.985 56.8667 143.991C56.8667 142.244 56.7443 136.258 56.7443 130.021C35.9433 134.512 31.6116 121.041 31.6116 121.041C28.2688 112.31 23.3157 110.066 23.3157 110.066C16.5076 105.451 23.8116 105.451 23.8116 105.451C31.3637 105.95 35.3264 113.184 35.3264 113.184C42.0106 124.658 52.7815 121.416 57.1147 119.42C57.7331 114.555 59.7152 111.188 61.8198 109.318C45.2295 107.571 27.7744 101.086 27.7744 72.1499C27.7744 63.9183 30.7438 57.1836 35.4489 51.9458C34.7065 50.0754 32.106 42.3412 36.1928 31.9897C36.1928 31.9897 42.5065 29.9938 56.7428 39.7223C62.8378 38.0733 69.1235 37.2345 75.4377 37.2274C81.7514 37.2274 88.1877 38.1014 94.131 39.7223C108.369 29.9938 114.683 31.9897 114.683 31.9897C118.769 42.3412 116.167 50.0754 115.425 51.9458C120.254 57.1836 123.101 63.9183 123.101 72.1499C123.101 101.086 105.646 107.446 88.9315 109.318C91.656 111.687 94.0071 116.176 94.0071 123.286C94.0071 133.388 93.8846 141.496 93.8846 143.989C93.8846 145.985 95.2468 148.356 98.9601 147.608C128.672 137.628 150.09 109.442 150.09 76.1417C150.213 34.483 116.663 0.80957 75.4377 0.80957Z" fill="#24292F"/>
</g>
<defs>
<clipPath id="clip0_455_44">
<rect width="150" height="146.939" fill="white" transform="translate(0.661133 0.80957)"/>
</clipPath>
</defs>
</svg>
