<svg width="63" height="63" viewBox="0 0 63 63" fill="none" xmlns="http://www.w3.org/2000/svg">
<path d="M53.3145 53.2388H44.0432V38.7401C44.0432 35.2828 43.9814 30.8321 39.2212 30.8321C34.3925 30.8321 33.6536 34.599 33.6536 38.4884V53.2378H24.3824V23.4226H33.2828V27.4972H33.4074C34.2981 25.9764 35.5852 24.7253 37.1316 23.8772C38.6781 23.0291 40.4259 22.6157 42.189 22.681C51.5858 22.681 53.3183 28.8531 53.3183 36.8827L53.3145 53.2388ZM13.9213 19.3471C12.8572 19.3473 11.8169 19.0324 10.9321 18.4422C10.0472 17.852 9.35748 17.013 8.95009 16.0314C8.5427 15.0497 8.43593 13.9695 8.64334 12.9273C8.85075 11.885 9.36301 10.9276 10.1153 10.1761C10.8676 9.42461 11.8262 8.91274 12.8698 8.70525C13.9134 8.49776 14.9952 8.60396 15.9784 9.01043C16.9616 9.41689 17.802 10.1054 18.3933 10.9888C18.9847 11.8722 19.3004 12.9109 19.3006 13.9735C19.3007 14.679 19.1617 15.3777 18.8914 16.0296C18.6211 16.6815 18.225 17.2738 17.7255 17.7728C17.226 18.2718 16.6329 18.6676 15.9802 18.9378C15.3275 19.2079 14.6279 19.347 13.9213 19.3471ZM18.5569 53.2388H9.27606V23.4226H18.5569V53.2388ZM57.9366 0.00425699H4.61728C3.40708 -0.00938084 2.24091 0.457325 1.37513 1.30182C0.509343 2.14631 0.0147698 3.2995 0 4.50798V57.973C0.0142643 59.1821 0.508547 60.3361 1.3743 61.1814C2.24006 62.0268 3.40648 62.4944 4.61728 62.4816H57.9366C59.1498 62.4967 60.3194 62.0305 61.1886 61.1851C62.0578 60.3398 62.5554 59.1845 62.5722 57.973V4.50412C62.5549 3.29324 62.0569 2.13874 61.1877 1.29427C60.3185 0.4498 59.1492 -0.0155721 57.9366 0.000397858" fill="black"/>
</svg>
