<svg width="151" height="34" viewBox="0 0 151 34" fill="none" xmlns="http://www.w3.org/2000/svg">
<g clip-path="url(#clip0_287_22)">
<path d="M47.2989 5.57108C46.7488 3.52038 45.128 1.90512 43.0697 1.35704C39.3388 0.360956 24.3792 0.360956 24.3792 0.360956C24.3792 0.360956 9.41976 0.360956 5.68897 1.35704C3.63084 1.90512 2.00972 3.52038 1.45965 5.57108C0.459961 9.28836 0.459961 17.0439 0.459961 17.0439C0.459961 17.0439 0.459961 24.7997 1.45965 28.5168C2.00972 30.5673 3.63084 32.1828 5.68897 32.7307C9.41976 33.7271 24.3792 33.7271 24.3792 33.7271C24.3792 33.7271 39.3388 33.7271 43.0697 32.7307C45.128 32.1828 46.7488 30.5673 47.2989 28.5168C48.2987 24.7997 48.2987 17.0439 48.2987 17.0439C48.2987 17.0439 48.2987 9.28836 47.2989 5.57108Z" fill="#ED1D24"/>
<path d="M19.5957 24.1938L32.0242 17.0441L19.5957 9.89408V24.1938Z" fill="white"/>
<path d="M75.2006 27.4429C75.4625 26.7616 75.594 25.6482 75.594 24.1029V17.5919C75.594 16.0922 75.4625 14.9961 75.2006 14.3027C74.9384 13.6098 74.4765 13.263 73.8153 13.263C73.1766 13.263 72.7257 13.6098 72.4638 14.3027C72.2016 14.9961 72.0704 16.0922 72.0704 17.5919V24.1029C72.0704 25.6482 72.1957 26.7616 72.4469 27.4429C72.6973 28.1249 73.1533 28.4654 73.8153 28.4654C74.4765 28.4654 74.9384 28.1249 75.2006 27.4429ZM69.8983 30.7154C68.9513 30.0798 68.2783 29.0909 67.8798 27.7497C67.4805 26.4094 67.2812 24.6254 67.2812 22.3983V19.3646C67.2812 17.115 67.5089 15.3081 67.9653 13.9448C68.4213 12.5814 69.1336 11.5874 70.1035 10.9623C71.0726 10.3376 72.3441 10.0249 73.9181 10.0249C75.4688 10.0249 76.7116 10.3433 77.6468 10.9793C78.5817 11.6155 79.266 12.6101 79.6996 13.9618C80.1324 15.3141 80.3493 17.115 80.3493 19.3646V22.3983C80.3493 24.6254 80.1383 26.4153 79.7165 27.767C79.2944 29.1192 78.61 30.1078 77.6637 30.7324C76.7171 31.3573 75.4345 31.6699 73.8153 31.6699C72.15 31.6699 70.8442 31.3514 69.8983 30.7154Z" fill="#252323"/>
<path d="M143.158 13.6535C142.919 13.949 142.758 14.4319 142.679 15.102C142.598 15.7725 142.56 16.7892 142.56 18.1527V19.6526H146.014V18.1527C146.014 16.8122 145.968 15.7953 145.878 15.102C145.786 14.409 145.621 13.9208 145.382 13.6365C145.142 13.3523 144.771 13.2102 144.27 13.2102C143.768 13.2102 143.397 13.3583 143.158 13.6535ZM142.56 22.4478V23.5046C142.56 24.8457 142.598 25.8511 142.679 26.5211C142.758 27.1916 142.923 27.6803 143.175 27.9873C143.426 28.2936 143.813 28.4473 144.338 28.4473C145.045 28.4473 145.53 28.1745 145.792 27.6289C146.054 27.0836 146.196 26.1748 146.219 24.9019L150.291 25.1407C150.313 25.323 150.325 25.5729 150.325 25.8904C150.325 27.8224 149.795 29.2655 148.734 30.2199C147.674 31.1739 146.174 31.6514 144.235 31.6514C141.909 31.6514 140.278 30.9244 139.343 29.4696C138.408 28.0159 137.94 25.766 137.94 22.7206V19.0731C137.94 15.9371 138.425 13.6481 139.395 12.2045C140.364 10.7616 142.023 10.0401 144.372 10.0401C145.991 10.0401 147.235 10.3356 148.101 10.9263C148.968 11.5176 149.578 12.4379 149.932 13.6873C150.285 14.9374 150.462 16.6647 150.462 18.8686V22.4478H142.56Z" fill="#252323"/>
<path d="M58.4025 22.0564L53.0312 2.72892H57.7181L59.5996 11.4894C60.0788 13.6487 60.432 15.4893 60.66 17.0114H60.7971C60.9565 15.9207 61.3102 14.0917 61.8575 11.5236L63.8075 2.72892H68.4943L63.055 22.0564V31.3286H58.4025V22.0564Z" fill="#252323"/>
<path d="M95.5927 10.4336V31.3289H91.8978L91.4871 28.7724H91.3847C90.3809 30.7039 88.8755 31.6694 86.8688 31.6694C85.4776 31.6694 84.4513 31.2155 83.7898 30.3061C83.1282 29.3977 82.7979 27.977 82.7979 26.0454V10.4336H87.5189V25.7726C87.5189 26.7049 87.6217 27.3693 87.8269 27.7667C88.032 28.1647 88.3742 28.3632 88.8531 28.3632C89.2638 28.3632 89.6572 28.2386 90.0332 27.988C90.4097 27.7382 90.6889 27.4206 90.8716 27.0341V10.4336H95.5927Z" fill="#252323"/>
<path d="M119.808 10.4336V31.3289H116.114L115.703 28.7724H115.601C114.596 30.7039 113.091 31.6694 111.085 31.6694C109.693 31.6694 108.667 31.2155 108.006 30.3061C107.344 29.3977 107.014 27.977 107.014 26.0454V10.4336H111.735V25.7726C111.735 26.7049 111.837 27.3693 112.042 27.7667C112.248 28.1647 112.59 28.3632 113.069 28.3632C113.48 28.3632 113.873 28.2386 114.249 27.988C114.626 27.7382 114.905 27.4206 115.087 27.0341V10.4336H119.808Z" fill="#252323"/>
<path d="M108.422 6.51333H103.735V31.3286H99.1165V6.51333H94.4297V2.72955H108.422V6.51333Z" fill="#252323"/>
<path d="M131.106 22.2968C131.106 23.8195 131.043 25.0127 130.918 25.8759C130.793 26.74 130.582 27.3534 130.285 27.7166C129.989 28.0803 129.589 28.2619 129.088 28.2619C128.7 28.2619 128.341 28.1715 128.01 27.9891C127.679 27.8075 127.412 27.5349 127.206 27.1709V15.3089C127.366 14.7412 127.639 14.2751 128.027 13.9114C128.415 13.5483 128.836 13.3661 129.293 13.3661C129.772 13.3661 130.142 13.5537 130.405 13.9284C130.667 14.3033 130.849 14.934 130.952 15.8205C131.055 16.7065 131.106 17.9677 131.106 19.6038V22.2968ZM135.434 13.7736C135.148 12.456 134.686 11.5016 134.048 10.9103C133.409 10.3199 132.531 10.0243 131.414 10.0243C130.547 10.0243 129.738 10.2687 128.985 10.757C128.233 11.2458 127.651 11.8879 127.24 12.6831H127.206L127.206 1.67289H122.656V31.3283H126.556L127.035 29.3516H127.138C127.502 30.0559 128.05 30.6127 128.78 31.0217C129.509 31.4306 130.319 31.6353 131.209 31.6353C132.805 31.6353 133.979 30.9022 134.732 29.4367C135.485 27.9707 135.861 25.6817 135.861 22.5681V19.2617C135.861 16.9214 135.718 15.092 135.434 13.7736Z" fill="#252323"/>
</g>
<defs>
<clipPath id="clip0_287_22">
<rect width="150" height="33.3661" fill="white" transform="translate(0.459961 0.36084)"/>
</clipPath>
</defs>
</svg>
