<svg width="150" height="106" viewBox="0 0 150 106" fill="none" xmlns="http://www.w3.org/2000/svg">
<g clip-path="url(#clip0_455_39)">
<path d="M146.865 16.4461C145.14 9.97239 140.058 4.8746 133.604 3.14448C121.907 0.000193726 75 0.000192106 75 0.000192106C75 0.000192106 28.0937 0.000193726 16.3959 3.14448C9.94227 4.8746 4.85928 9.97239 3.13443 16.4461C0 28.1793 0 52.6598 0 52.6598C0 52.6598 0 77.1399 3.13443 88.8742C4.85928 95.3471 9.94227 100.445 16.3959 102.176C28.0937 105.319 75 105.319 75 105.319C75 105.319 121.907 105.319 133.604 102.176C140.058 100.445 145.14 95.3471 146.865 88.8742C150 77.1399 150 52.6598 150 52.6598C150 52.6598 150 28.1793 146.865 16.4461Z" fill="#252323"/>
<path d="M59.6592 74.8857L98.8637 52.6604L59.6592 30.433V74.8857Z" fill="white"/>
</g>
<defs>
<clipPath id="clip0_455_39">
<rect width="150" height="105.319" fill="white"/>
</clipPath>
</defs>
</svg>
